<svg width="677" height="197" viewBox="0 0 677 197" fill="none" xmlns="http://www.w3.org/2000/svg">
<path d="M10.4212 69.7687H22.3862L28.1331 33.148L28.6513 29.7002L29.1694 33.148L35.1519 69.7687H47.1169L56.6323 1.93183H44.4789L39.8154 39.9503L39.4857 42.7924L33.3148 1.93183H23.8465L18.4293 39.7173L18.0053 42.5128L17.6756 39.8571L13.1063 1.93183H1L10.4212 69.7687Z" fill="white"/>
<path d="M157.089 40.8355V30.9582C157.089 27.8832 156.79 24.979 156.194 22.2456C155.629 19.5123 154.796 16.9963 153.697 14.6978C152.692 12.6789 151.483 10.8308 150.07 9.15347C148.688 7.47619 147.071 6.04739 145.218 4.86708C143.365 3.62464 141.277 2.67729 138.953 2.02501C136.66 1.34167 134.195 1 131.557 1C128.951 1 126.533 1.32614 124.303 1.97842C122.073 2.63069 120.063 3.56252 118.273 4.77389C116.452 6.01633 114.835 7.50725 113.421 9.24665C112.04 10.9861 110.862 12.9274 109.889 15.0706C108.884 17.338 108.114 19.8073 107.58 22.4786C107.078 25.1498 106.827 27.9763 106.827 30.9582V40.8355C106.827 43.631 107.046 46.2867 107.486 48.8026C107.957 51.3186 108.632 53.6481 109.512 55.7913C110.485 58.1209 111.694 60.2175 113.139 62.0812C114.583 63.9137 116.216 65.4823 118.038 66.7869C119.891 68.0293 121.948 68.9922 124.209 69.6755C126.47 70.3589 128.935 70.7005 131.604 70.7005C134.117 70.7005 136.456 70.3899 138.623 69.7687C140.822 69.1786 142.831 68.3399 144.653 67.2528C146.663 66.0104 148.453 64.4573 150.023 62.5937C151.593 60.73 152.912 58.68 153.98 56.4436C154.985 54.2072 155.754 51.7845 156.288 49.1754C156.822 46.5352 157.089 43.7553 157.089 40.8355ZM143.664 30.865V40.8355C143.664 42.5128 143.569 44.128 143.381 45.681C143.224 47.2341 142.973 48.6629 142.627 49.9674C142.188 51.6447 141.591 53.1512 140.837 54.4868C140.115 55.7913 139.22 56.8785 138.152 57.7482C137.304 58.4626 136.331 59.0061 135.232 59.3789C134.132 59.7516 132.923 59.938 131.604 59.938C130.223 59.938 128.982 59.7361 127.883 59.3323C126.815 58.9285 125.857 58.3539 125.01 57.6084C124.099 56.7697 123.298 55.6826 122.607 54.347C121.948 52.9803 121.445 51.4739 121.1 49.8277C120.786 48.5231 120.566 47.1098 120.44 45.5878C120.315 44.0659 120.252 42.4818 120.252 40.8355V30.865C120.252 29.1256 120.315 27.4638 120.44 25.8797C120.597 24.2956 120.833 22.8358 121.147 21.5002C121.555 19.7608 122.12 18.2388 122.843 16.9342C123.596 15.6297 124.507 14.5425 125.575 13.6728C126.36 13.0827 127.239 12.6323 128.213 12.3217C129.218 12.0111 130.333 11.8558 131.557 11.8558C132.845 11.8558 134.007 12.0266 135.043 12.3683C136.111 12.7099 137.069 13.1914 137.917 13.8126C138.984 14.6512 139.911 15.7384 140.696 17.074C141.481 18.3785 142.109 19.8695 142.58 21.5467C142.957 22.8824 143.224 24.3422 143.381 25.9263C143.569 27.4794 143.664 29.1256 143.664 30.865Z" fill="white"/>
<path d="M235.782 44.4231L248.689 69.7687H262.868V69.163L248.124 41.1617C250.008 40.323 251.704 39.3291 253.212 38.1798C254.75 37.0306 256.069 35.6794 257.169 34.1264C258.236 32.6044 259.053 30.8805 259.618 28.9548C260.215 26.9979 260.513 24.8081 260.513 22.3854C260.513 19.0308 259.916 16.08 258.723 13.5331C257.561 10.9861 255.897 8.85839 253.73 7.15005C251.531 5.4417 248.894 4.15268 245.816 3.28297C242.738 2.38221 239.3 1.93183 235.5 1.93183H212.512V69.7687H225.749V44.4231H235.782ZM225.749 33.8003V12.5546H235.5C237.321 12.5546 238.938 12.7721 240.352 13.2069C241.765 13.6418 242.958 14.263 243.932 15.0706C245.031 15.9713 245.847 17.1206 246.381 18.5183C246.947 19.885 247.229 21.4691 247.229 23.2706C247.229 24.7615 247.009 26.1127 246.57 27.3241C246.161 28.5354 245.549 29.576 244.733 30.4457C243.759 31.5328 242.487 32.3715 240.917 32.9616C239.378 33.5207 237.588 33.8003 235.547 33.8003H225.749Z" fill="white"/>
<path d="M315.512 69.7687H333.931C336.977 69.7687 339.835 69.396 342.504 68.6505C345.205 67.9051 347.67 66.8335 349.9 65.4357C351.815 64.2554 353.574 62.7956 355.176 61.0561C356.777 59.2857 358.175 57.3599 359.368 55.2788C360.624 52.9493 361.598 50.3867 362.289 47.5913C362.979 44.7958 363.325 41.8295 363.325 38.6923V33.1014C363.325 29.84 362.948 26.765 362.194 23.8763C361.472 20.9877 360.436 18.3475 359.085 15.9558C357.923 13.999 356.557 12.1974 354.987 10.5512C353.448 8.87392 351.69 7.46066 349.711 6.3114C347.45 4.91367 344.938 3.84207 342.174 3.09661C339.411 2.32009 336.443 1.93183 333.271 1.93183H315.512V69.7687ZM328.843 12.5546H333.271C334.873 12.5546 336.349 12.741 337.699 13.1137C339.081 13.4554 340.337 13.9524 341.468 14.6047C342.944 15.4744 344.231 16.5925 345.33 17.9592C346.461 19.3259 347.372 20.8789 348.063 22.6183C348.628 24.0782 349.052 25.6934 349.334 27.4638C349.648 29.2032 349.805 31.0514 349.805 33.0082V38.6923C349.805 40.7734 349.648 42.7147 349.334 44.5162C349.052 46.2867 348.628 47.9019 348.063 49.3617C347.372 51.039 346.539 52.5144 345.566 53.7879C344.624 55.0303 343.556 56.0554 342.363 56.8629C341.201 57.6395 339.913 58.2296 338.5 58.6334C337.087 59.0372 335.564 59.2391 333.931 59.2391H328.843V12.5546Z" fill="white"/>
<path d="M113.704 196H125.669L131.416 159.379L131.934 155.932L132.452 159.379L138.435 196H150.4L159.915 128.163H147.762L143.098 166.182L142.769 169.024L136.598 128.163H127.129L121.712 165.949L121.288 168.744L120.958 166.088L116.389 128.163H104.283L113.704 196Z" fill="white"/>
<path d="M254.719 166.275V155.932H226.55V138.833H259.335V128.163H213.266V196H259.477V185.424H226.55V166.275H254.719Z" fill="white"/>
<path d="M349.523 181.836L353.527 196H367.47L345.425 128.163H333.413L310.943 196H324.886L328.937 181.836H349.523ZM332.188 170.701L339.395 145.728L346.414 170.701H332.188Z" fill="white"/>
<path d="M435.094 196H448.566L469.34 128.163H454.737L443.055 172.425L441.783 177.037L440.605 172.471L428.97 128.163H414.367L435.094 196Z" fill="white"/>
<path d="M564.568 166.275V155.932H536.398V138.833H569.184V128.163H523.114V196H569.325V185.424H536.398V166.275H564.568Z" fill="white"/>
<path d="M648.914 170.654L661.821 196H676V195.394L661.256 167.393C663.14 166.554 664.836 165.56 666.343 164.411C667.882 163.262 669.201 161.911 670.3 160.358C671.368 158.836 672.184 157.112 672.75 155.186C673.346 153.229 673.645 151.039 673.645 148.617C673.645 145.262 673.048 142.311 671.855 139.764C670.693 137.217 669.028 135.09 666.861 133.381C664.663 131.673 662.025 130.384 658.948 129.514C655.87 128.613 652.431 128.163 648.631 128.163H625.644V196H638.88V170.654H648.914ZM638.88 160.032V138.786H648.631C650.453 138.786 652.07 139.003 653.483 139.438C654.896 139.873 656.09 140.494 657.063 141.302C658.162 142.203 658.979 143.352 659.513 144.75C660.078 146.116 660.361 147.7 660.361 149.502C660.361 150.993 660.141 152.344 659.701 153.555C659.293 154.767 658.681 155.807 657.864 156.677C656.891 157.764 655.619 158.603 654.049 159.193C652.51 159.752 650.72 160.032 648.678 160.032H638.88Z" fill="white"/>
<path d="M181.165 2.18031L181.165 196M101.273 95.1144H387.678M289.697 2.18031V196M10.4212 69.7687H22.3862L28.1331 33.148L28.6513 29.7002L29.1694 33.148L35.1519 69.7687H47.1169L56.6323 1.93183H44.4789L39.8154 39.9503L39.4857 42.7924L33.3148 1.93183H23.8465L18.4293 39.7173L18.0053 42.5128L17.6756 39.8571L13.1063 1.93183H1L10.4212 69.7687ZM157.089 40.8355V30.9582C157.089 27.8832 156.79 24.979 156.194 22.2456C155.629 19.5123 154.796 16.9963 153.697 14.6978C152.692 12.6789 151.483 10.8308 150.07 9.15347C148.688 7.47619 147.071 6.04739 145.218 4.86708C143.365 3.62464 141.277 2.67729 138.953 2.02501C136.66 1.34167 134.195 1 131.557 1C128.951 1 126.533 1.32614 124.303 1.97842C122.073 2.63069 120.063 3.56252 118.273 4.77389C116.452 6.01633 114.835 7.50725 113.421 9.24665C112.04 10.9861 110.862 12.9274 109.889 15.0706C108.884 17.338 108.114 19.8073 107.58 22.4786C107.078 25.1498 106.827 27.9763 106.827 30.9582V40.8355C106.827 43.631 107.046 46.2867 107.486 48.8026C107.957 51.3186 108.632 53.6481 109.512 55.7913C110.485 58.1209 111.694 60.2175 113.139 62.0812C114.583 63.9137 116.216 65.4823 118.038 66.7869C119.891 68.0293 121.948 68.9922 124.209 69.6755C126.47 70.3589 128.935 70.7005 131.604 70.7005C134.117 70.7005 136.456 70.3899 138.623 69.7687C140.822 69.1786 142.831 68.3399 144.653 67.2528C146.663 66.0104 148.453 64.4573 150.023 62.5937C151.593 60.73 152.912 58.68 153.98 56.4436C154.985 54.2072 155.754 51.7845 156.288 49.1754C156.822 46.5352 157.089 43.7553 157.089 40.8355ZM143.664 30.865V40.8355C143.664 42.5128 143.569 44.128 143.381 45.681C143.224 47.2341 142.973 48.6629 142.627 49.9674C142.188 51.6447 141.591 53.1512 140.837 54.4868C140.115 55.7913 139.22 56.8785 138.152 57.7482C137.304 58.4626 136.331 59.0061 135.232 59.3789C134.132 59.7516 132.923 59.938 131.604 59.938C130.223 59.938 128.982 59.7361 127.883 59.3323C126.815 58.9285 125.857 58.3539 125.01 57.6084C124.099 56.7697 123.298 55.6826 122.607 54.347C121.948 52.9803 121.445 51.4739 121.1 49.8277C120.786 48.5231 120.566 47.1098 120.44 45.5878C120.315 44.0659 120.252 42.4818 120.252 40.8355V30.865C120.252 29.1256 120.315 27.4638 120.44 25.8797C120.597 24.2956 120.833 22.8358 121.147 21.5002C121.555 19.7608 122.12 18.2388 122.843 16.9342C123.596 15.6297 124.507 14.5425 125.575 13.6728C126.36 13.0827 127.239 12.6323 128.213 12.3217C129.218 12.0111 130.333 11.8558 131.557 11.8558C132.845 11.8558 134.007 12.0266 135.043 12.3683C136.111 12.7099 137.069 13.1914 137.917 13.8126C138.984 14.6512 139.911 15.7384 140.696 17.074C141.481 18.3785 142.109 19.8695 142.58 21.5467C142.957 22.8824 143.224 24.3422 143.381 25.9263C143.569 27.4794 143.664 29.1256 143.664 30.865ZM235.782 44.4231L248.689 69.7687H262.868V69.163L248.124 41.1617C250.008 40.323 251.704 39.3291 253.212 38.1798C254.75 37.0306 256.069 35.6794 257.169 34.1264C258.236 32.6044 259.053 30.8805 259.618 28.9548C260.215 26.9979 260.513 24.8081 260.513 22.3854C260.513 19.0308 259.916 16.08 258.723 13.5331C257.561 10.9861 255.897 8.85839 253.73 7.15005C251.531 5.4417 248.894 4.15268 245.816 3.28297C242.738 2.38221 239.3 1.93183 235.5 1.93183H212.512V69.7687H225.749V44.4231H235.782ZM225.749 33.8003V12.5546H235.5C237.321 12.5546 238.938 12.7721 240.352 13.2069C241.765 13.6418 242.958 14.263 243.932 15.0706C245.031 15.9713 245.847 17.1206 246.381 18.5183C246.947 19.885 247.229 21.4691 247.229 23.2706C247.229 24.7615 247.009 26.1127 246.57 27.3241C246.161 28.5354 245.549 29.576 244.733 30.4457C243.759 31.5328 242.487 32.3715 240.917 32.9616C239.378 33.5207 237.588 33.8003 235.547 33.8003H225.749ZM315.512 69.7687H333.931C336.977 69.7687 339.835 69.396 342.504 68.6505C345.205 67.9051 347.67 66.8335 349.9 65.4357C351.815 64.2554 353.574 62.7956 355.176 61.0561C356.777 59.2857 358.175 57.3599 359.368 55.2788C360.624 52.9493 361.598 50.3867 362.289 47.5913C362.979 44.7958 363.325 41.8295 363.325 38.6923V33.1014C363.325 29.84 362.948 26.765 362.194 23.8763C361.472 20.9877 360.436 18.3475 359.085 15.9558C357.923 13.999 356.557 12.1974 354.987 10.5512C353.448 8.87392 351.69 7.46066 349.711 6.3114C347.45 4.91367 344.938 3.84207 342.174 3.09661C339.411 2.32009 336.443 1.93183 333.271 1.93183H315.512V69.7687ZM328.843 12.5546H333.271C334.873 12.5546 336.349 12.741 337.699 13.1137C339.081 13.4554 340.337 13.9524 341.468 14.6047C342.944 15.4744 344.231 16.5925 345.33 17.9592C346.461 19.3259 347.372 20.8789 348.063 22.6183C348.628 24.0782 349.052 25.6934 349.334 27.4638C349.648 29.2032 349.805 31.0514 349.805 33.0082V38.6923C349.805 40.7734 349.648 42.7147 349.334 44.5162C349.052 46.2867 348.628 47.9019 348.063 49.3617C347.372 51.039 346.539 52.5144 345.566 53.7879C344.624 55.0303 343.556 56.0554 342.363 56.8629C341.201 57.6395 339.913 58.2296 338.5 58.6334C337.087 59.0372 335.564 59.2391 333.931 59.2391H328.843V12.5546ZM113.704 196H125.669L131.416 159.379L131.934 155.932L132.452 159.379L138.435 196H150.4L159.915 128.163H147.762L143.098 166.182L142.769 169.024L136.598 128.163H127.129L121.712 165.949L121.288 168.744L120.958 166.088L116.389 128.163H104.283L113.704 196ZM254.719 166.275V155.932H226.55V138.833H259.335V128.163H213.266V196H259.477V185.424H226.55V166.275H254.719ZM349.523 181.836L353.527 196H367.47L345.425 128.163H333.413L310.943 196H324.886L328.937 181.836H349.523ZM332.188 170.701L339.395 145.728L346.414 170.701H332.188ZM435.094 196H448.566L469.34 128.163H454.737L443.055 172.425L441.783 177.037L440.605 172.471L428.97 128.163H414.367L435.094 196ZM564.568 166.275V155.932H536.398V138.833H569.184V128.163H523.114V196H569.325V185.424H536.398V166.275H564.568ZM648.914 170.654L661.821 196H676V195.394L661.256 167.393C663.14 166.554 664.836 165.56 666.343 164.411C667.882 163.262 669.201 161.911 670.3 160.358C671.368 158.836 672.184 157.112 672.75 155.186C673.346 153.229 673.645 151.039 673.645 148.617C673.645 145.262 673.048 142.311 671.855 139.764C670.693 137.217 669.028 135.09 666.861 133.381C664.663 131.673 662.025 130.384 658.948 129.514C655.87 128.613 652.431 128.163 648.631 128.163H625.644V196H638.88V170.654H648.914ZM638.88 160.032V138.786H648.631C650.453 138.786 652.07 139.003 653.483 139.438C654.896 139.873 656.09 140.494 657.063 141.302C658.162 142.203 658.979 143.352 659.513 144.75C660.078 146.116 660.361 147.7 660.361 149.502C660.361 150.993 660.141 152.344 659.701 153.555C659.293 154.767 658.681 155.807 657.864 156.677C656.891 157.764 655.619 158.603 654.049 159.193C652.51 159.752 650.72 160.032 648.678 160.032H638.88Z" stroke="white"/>
</svg>
