<svg width="216" height="64" viewBox="0 0 216 64" fill="none" xmlns="http://www.w3.org/2000/svg">
<path d="M3.98687 22.8649H7.78021L9.6022 11.2214L9.76648 10.1252L9.93076 11.2214L11.8274 22.8649H15.6208L18.6375 1.29627H14.7844L13.3059 13.3842L13.2014 14.2878L11.245 1.29627H8.24317L6.52572 13.3101L6.39131 14.1989L6.28677 13.3546L4.83813 1.29627H1L3.98687 22.8649Z" fill="black"/>
<path d="M50.4859 13.6657V10.5252C50.4859 9.54747 50.3914 8.62408 50.2022 7.75502C50.023 6.88595 49.7591 6.08601 49.4107 5.35521C49.0921 4.71328 48.7088 4.12568 48.2607 3.59239C47.8226 3.0591 47.3099 2.60481 46.7225 2.22953C46.1351 1.8345 45.473 1.53329 44.7362 1.3259C44.0094 1.10863 43.2278 1 42.3915 1C41.5651 1 40.7985 1.1037 40.0916 1.31109C39.3847 1.51848 38.7475 1.81475 38.18 2.1999C37.6026 2.59493 37.0898 3.06897 36.6418 3.62201C36.2037 4.17506 35.8303 4.79229 35.5217 5.47372C35.2031 6.19465 34.9592 6.97977 34.7899 7.82909C34.6306 8.6784 34.551 9.57709 34.551 10.5252V13.6657C34.551 14.5545 34.6207 15.3989 34.76 16.1988C34.9094 16.9987 35.1234 17.7394 35.4022 18.4208C35.7109 19.1615 36.0942 19.8281 36.5522 20.4207C37.0102 21.0033 37.5279 21.5021 38.1053 21.9169C38.6928 22.3119 39.3449 22.618 40.0617 22.8353C40.7786 23.0526 41.5602 23.1612 42.4064 23.1612C43.2029 23.1612 43.9447 23.0624 44.6317 22.8649C45.3286 22.6773 45.9658 22.4106 46.5433 22.065C47.1805 21.67 47.748 21.1762 48.2458 20.5836C48.7436 19.9911 49.1618 19.3393 49.5003 18.6282C49.8189 17.9172 50.0628 17.1469 50.2321 16.3173C50.4013 15.4779 50.4859 14.594 50.4859 13.6657ZM46.2296 10.4955V13.6657C46.2296 14.1989 46.1998 14.7125 46.14 15.2063C46.0903 15.7001 46.0106 16.1543 45.9011 16.5691C45.7617 17.1024 45.5725 17.5814 45.3336 18.0061C45.1046 18.4208 44.8208 18.7665 44.4823 19.043C44.2135 19.2701 43.9049 19.443 43.5564 19.5615C43.2079 19.68 42.8246 19.7392 42.4064 19.7392C41.9684 19.7392 41.5751 19.6751 41.2266 19.5467C40.8881 19.4183 40.5845 19.2356 40.3156 18.9986C40.0269 18.7319 39.773 18.3863 39.554 17.9616C39.3449 17.5271 39.1856 17.0481 39.0761 16.5247C38.9765 16.1099 38.9068 15.6606 38.867 15.1766C38.8272 14.6927 38.8073 14.1891 38.8073 13.6657V10.4955C38.8073 9.9425 38.8272 9.41414 38.867 8.91048C38.9168 8.40682 38.9915 7.94266 39.091 7.518C39.2204 6.96496 39.3997 6.48104 39.6287 6.06626C39.8676 5.65148 40.1563 5.30583 40.4948 5.02931C40.7438 4.84167 41.0225 4.69847 41.3312 4.59971C41.6498 4.50096 42.0032 4.45158 42.3915 4.45158C42.7997 4.45158 43.1681 4.50589 43.4967 4.61453C43.8352 4.72316 44.1388 4.87623 44.4077 5.07375C44.7462 5.3404 45.0399 5.68605 45.2888 6.1107C45.5377 6.52549 45.7368 6.99952 45.8862 7.53281C46.0056 7.95747 46.0903 8.42163 46.14 8.92529C46.1998 9.41908 46.2296 9.9425 46.2296 10.4955Z" fill="black"/>
<path d="M75.4347 14.8063L79.5267 22.8649H84.022V22.6723L79.3475 13.7694C79.9449 13.5027 80.4825 13.1867 80.9604 12.8213C81.4483 12.4559 81.8664 12.0263 82.2149 11.5325C82.5534 11.0486 82.8123 10.5005 82.9915 9.88818C83.1807 9.26601 83.2753 8.56977 83.2753 7.79946C83.2753 6.73288 83.0861 5.79468 82.7077 4.98487C82.3394 4.17506 81.8117 3.49857 81.1247 2.9554C80.4278 2.41223 79.5914 2.00239 78.6157 1.72587C77.64 1.43947 76.5498 1.29627 75.3451 1.29627H68.0571V22.8649H72.2537V14.8063H75.4347ZM72.2537 11.4288V4.67378H75.3451C75.9226 4.67378 76.4353 4.74291 76.8833 4.88117C77.3314 5.01943 77.7097 5.21695 78.0184 5.47372C78.3668 5.76011 78.6257 6.12552 78.7949 6.56993C78.9742 7.00446 79.0638 7.50812 79.0638 8.08092C79.0638 8.55495 78.9941 8.98455 78.8547 9.3697C78.7252 9.75486 78.5311 10.0857 78.2722 10.3622C77.9636 10.7079 77.5604 10.9745 77.0626 11.1622C76.5747 11.3399 76.0072 11.4288 75.36 11.4288H72.2537Z" fill="black"/>
<path d="M100.712 22.8649H106.551C107.517 22.8649 108.423 22.7464 109.269 22.5094C110.126 22.2724 110.907 21.9317 111.614 21.4873C112.221 21.112 112.779 20.6478 113.287 20.0948C113.795 19.5319 114.238 18.9196 114.616 18.2579C115.014 17.5172 115.323 16.7025 115.542 15.8136C115.761 14.9248 115.87 13.9817 115.87 12.9842V11.2066C115.87 10.1696 115.751 9.19194 115.512 8.27349C115.283 7.35505 114.954 6.51561 114.526 5.75518C114.158 5.133 113.725 4.56021 113.227 4.0368C112.739 3.5035 112.182 3.05416 111.554 2.68875C110.838 2.24435 110.041 1.90363 109.165 1.66661C108.289 1.41972 107.348 1.29627 106.342 1.29627H100.712V22.8649ZM104.938 4.67378H106.342C106.85 4.67378 107.318 4.73304 107.746 4.85155C108.184 4.96018 108.582 5.11819 108.941 5.32558C109.409 5.6021 109.817 5.95763 110.165 6.39216C110.524 6.8267 110.813 7.32048 111.032 7.87353C111.211 8.33769 111.345 8.85123 111.435 9.41414C111.534 9.96719 111.584 10.5548 111.584 11.177V12.9842C111.584 13.6459 111.534 14.2631 111.435 14.8359C111.345 15.3989 111.211 15.9124 111.032 16.3766C110.813 16.9098 110.549 17.3789 110.24 17.7838C109.941 18.1789 109.603 18.5048 109.225 18.7615C108.856 19.0084 108.448 19.1961 108 19.3245C107.552 19.4529 107.069 19.517 106.551 19.517H104.938V4.67378Z" fill="black"/>
<path d="M36.7314 63H40.5247L42.3467 51.3565L42.511 50.2603L42.6753 51.3565L44.5719 63H48.3653L51.382 41.4313H47.5289L46.0504 53.5193L45.9459 54.4229L43.9895 41.4313H40.9877L39.2702 53.4452L39.1358 54.334L39.0313 53.4896L37.5826 41.4313H33.7445L36.7314 63Z" fill="black"/>
<path d="M81.4383 53.5489V50.2603H72.5076V44.8237H82.9019V41.4313H68.2961V63H82.9467V59.6373H72.5076V53.5489H81.4383Z" fill="black"/>
<path d="M111.495 58.4967L112.764 63H117.185L110.195 41.4313H106.387L99.2634 63H103.684L104.968 58.4967H111.495ZM105.999 54.9562L108.284 47.0161L110.509 54.9562H105.999Z" fill="black"/>
<path d="M138.624 63H142.895L149.481 41.4313H144.851L141.148 55.5043L140.745 56.9709L140.371 55.5191L136.682 41.4313H132.053L138.624 63Z" fill="black"/>
<path d="M179.672 53.5489V50.2603H170.741V44.8237H181.135V41.4313H166.53V63H181.18V59.6373H170.741V53.5489H179.672Z" fill="black"/>
<path d="M206.413 54.9414L210.505 63H215V62.8074L210.326 53.9044C210.923 53.6378 211.461 53.3218 211.938 52.9564C212.426 52.591 212.844 52.1614 213.193 51.6676C213.531 51.1837 213.79 50.6356 213.97 50.0233C214.159 49.4011 214.253 48.7048 214.253 47.9345C214.253 46.868 214.064 45.9298 213.686 45.1199C213.317 44.3101 212.79 43.6336 212.103 43.0905C211.406 42.5473 210.569 42.1375 209.594 41.8609C208.618 41.5745 207.528 41.4313 206.323 41.4313H199.035V63H203.232V54.9414H206.413ZM203.232 51.5639V44.8089H206.323C206.901 44.8089 207.413 44.878 207.861 45.0162C208.309 45.1545 208.688 45.352 208.996 45.6088C209.345 45.8952 209.604 46.2606 209.773 46.705C209.952 47.1395 210.042 47.6432 210.042 48.216C210.042 48.69 209.972 49.1196 209.833 49.5048C209.703 49.8899 209.509 50.2208 209.25 50.4973C208.942 50.8429 208.538 51.1096 208.041 51.2972C207.553 51.475 206.985 51.5639 206.338 51.5639H203.232Z" fill="black"/>
<path d="M58.119 1.37528L58.119 63M32.7903 30.9235H123.591M92.5278 1.37528V63M3.98687 22.8649H7.78021L9.6022 11.2214L9.76648 10.1252L9.93076 11.2214L11.8274 22.8649H15.6208L18.6375 1.29627H14.7844L13.3059 13.3842L13.2014 14.2878L11.245 1.29627H8.24317L6.52572 13.3101L6.39131 14.1989L6.28677 13.3546L4.83813 1.29627H1L3.98687 22.8649ZM50.4859 13.6657V10.5252C50.4859 9.54747 50.3914 8.62408 50.2022 7.75502C50.023 6.88595 49.7591 6.08601 49.4107 5.35521C49.0921 4.71328 48.7088 4.12568 48.2607 3.59239C47.8226 3.0591 47.3099 2.60481 46.7225 2.22953C46.1351 1.8345 45.473 1.53329 44.7362 1.3259C44.0094 1.10863 43.2278 1 42.3915 1C41.5651 1 40.7985 1.1037 40.0916 1.31109C39.3847 1.51848 38.7475 1.81475 38.18 2.1999C37.6026 2.59493 37.0898 3.06897 36.6418 3.62201C36.2037 4.17506 35.8303 4.79229 35.5217 5.47372C35.2031 6.19465 34.9592 6.97977 34.7899 7.82909C34.6306 8.6784 34.551 9.57709 34.551 10.5252V13.6657C34.551 14.5545 34.6207 15.3989 34.76 16.1988C34.9094 16.9987 35.1234 17.7394 35.4022 18.4208C35.7109 19.1615 36.0942 19.8281 36.5522 20.4207C37.0102 21.0033 37.5279 21.5021 38.1053 21.9169C38.6928 22.3119 39.3449 22.618 40.0617 22.8353C40.7786 23.0526 41.5602 23.1612 42.4064 23.1612C43.2029 23.1612 43.9447 23.0624 44.6317 22.8649C45.3286 22.6773 45.9658 22.4106 46.5433 22.065C47.1805 21.67 47.748 21.1762 48.2458 20.5836C48.7436 19.9911 49.1618 19.3393 49.5003 18.6282C49.8189 17.9172 50.0628 17.1469 50.2321 16.3173C50.4013 15.4779 50.4859 14.594 50.4859 13.6657ZM46.2296 10.4955V13.6657C46.2296 14.1989 46.1998 14.7125 46.14 15.2063C46.0903 15.7001 46.0106 16.1543 45.9011 16.5691C45.7617 17.1024 45.5725 17.5814 45.3336 18.0061C45.1046 18.4208 44.8208 18.7665 44.4823 19.043C44.2135 19.2701 43.9049 19.443 43.5564 19.5615C43.2079 19.68 42.8246 19.7392 42.4064 19.7392C41.9684 19.7392 41.5751 19.6751 41.2266 19.5467C40.8881 19.4183 40.5845 19.2356 40.3156 18.9986C40.0269 18.7319 39.773 18.3863 39.554 17.9616C39.3449 17.5271 39.1856 17.0481 39.0761 16.5247C38.9765 16.1099 38.9068 15.6606 38.867 15.1766C38.8272 14.6927 38.8073 14.1891 38.8073 13.6657V10.4955C38.8073 9.9425 38.8272 9.41414 38.867 8.91048C38.9168 8.40682 38.9915 7.94266 39.091 7.518C39.2204 6.96496 39.3997 6.48104 39.6287 6.06626C39.8676 5.65148 40.1563 5.30583 40.4948 5.02931C40.7438 4.84167 41.0225 4.69847 41.3312 4.59971C41.6498 4.50096 42.0032 4.45158 42.3915 4.45158C42.7997 4.45158 43.1681 4.50589 43.4967 4.61453C43.8352 4.72316 44.1388 4.87623 44.4077 5.07375C44.7462 5.3404 45.0399 5.68605 45.2888 6.1107C45.5377 6.52549 45.7368 6.99952 45.8862 7.53281C46.0056 7.95747 46.0903 8.42163 46.14 8.92529C46.1998 9.41908 46.2296 9.9425 46.2296 10.4955ZM75.4347 14.8063L79.5267 22.8649H84.022V22.6723L79.3475 13.7694C79.9449 13.5027 80.4825 13.1867 80.9604 12.8213C81.4483 12.4559 81.8664 12.0263 82.2149 11.5325C82.5534 11.0486 82.8123 10.5005 82.9915 9.88818C83.1807 9.26601 83.2753 8.56977 83.2753 7.79946C83.2753 6.73288 83.0861 5.79468 82.7077 4.98487C82.3394 4.17506 81.8117 3.49857 81.1247 2.9554C80.4278 2.41223 79.5914 2.00239 78.6157 1.72587C77.64 1.43947 76.5498 1.29627 75.3451 1.29627H68.0571V22.8649H72.2537V14.8063H75.4347ZM72.2537 11.4288V4.67378H75.3451C75.9226 4.67378 76.4353 4.74291 76.8833 4.88117C77.3314 5.01943 77.7097 5.21695 78.0184 5.47372C78.3668 5.76011 78.6257 6.12552 78.7949 6.56993C78.9742 7.00446 79.0638 7.50812 79.0638 8.08092C79.0638 8.55495 78.9941 8.98455 78.8547 9.3697C78.7252 9.75486 78.5311 10.0857 78.2722 10.3622C77.9636 10.7079 77.5604 10.9745 77.0626 11.1622C76.5747 11.3399 76.0072 11.4288 75.36 11.4288H72.2537ZM100.712 22.8649H106.551C107.517 22.8649 108.423 22.7464 109.269 22.5094C110.126 22.2724 110.907 21.9317 111.614 21.4873C112.221 21.112 112.779 20.6478 113.287 20.0948C113.795 19.5319 114.238 18.9196 114.616 18.2579C115.014 17.5172 115.323 16.7025 115.542 15.8136C115.761 14.9248 115.87 13.9817 115.87 12.9842V11.2066C115.87 10.1696 115.751 9.19194 115.512 8.27349C115.283 7.35505 114.954 6.51561 114.526 5.75518C114.158 5.133 113.725 4.56021 113.227 4.0368C112.739 3.5035 112.182 3.05416 111.554 2.68875C110.838 2.24435 110.041 1.90363 109.165 1.66661C108.289 1.41972 107.348 1.29627 106.342 1.29627H100.712V22.8649ZM104.938 4.67378H106.342C106.85 4.67378 107.318 4.73304 107.746 4.85155C108.184 4.96018 108.582 5.11819 108.941 5.32558C109.409 5.6021 109.817 5.95763 110.165 6.39216C110.524 6.8267 110.813 7.32048 111.032 7.87353C111.211 8.33769 111.345 8.85123 111.435 9.41414C111.534 9.96719 111.584 10.5548 111.584 11.177V12.9842C111.584 13.6459 111.534 14.2631 111.435 14.8359C111.345 15.3989 111.211 15.9124 111.032 16.3766C110.813 16.9098 110.549 17.3789 110.24 17.7838C109.941 18.1789 109.603 18.5048 109.225 18.7615C108.856 19.0084 108.448 19.1961 108 19.3245C107.552 19.4529 107.069 19.517 106.551 19.517H104.938V4.67378ZM36.7314 63H40.5247L42.3467 51.3565L42.511 50.2603L42.6753 51.3565L44.5719 63H48.3653L51.382 41.4313H47.5289L46.0504 53.5193L45.9459 54.4229L43.9895 41.4313H40.9877L39.2702 53.4452L39.1358 54.334L39.0313 53.4896L37.5826 41.4313H33.7445L36.7314 63ZM81.4383 53.5489V50.2603H72.5076V44.8237H82.9019V41.4313H68.2961V63H82.9467V59.6373H72.5076V53.5489H81.4383ZM111.495 58.4967L112.764 63H117.185L110.195 41.4313H106.387L99.2634 63H103.684L104.968 58.4967H111.495ZM105.999 54.9562L108.284 47.0161L110.509 54.9562H105.999ZM138.624 63H142.895L149.481 41.4313H144.851L141.148 55.5043L140.745 56.9709L140.371 55.5191L136.682 41.4313H132.053L138.624 63ZM179.672 53.5489V50.2603H170.741V44.8237H181.135V41.4313H166.53V63H181.18V59.6373H170.741V53.5489H179.672ZM206.413 54.9414L210.505 63H215V62.8074L210.326 53.9044C210.923 53.6378 211.461 53.3218 211.938 52.9564C212.426 52.591 212.844 52.1614 213.193 51.6676C213.531 51.1837 213.79 50.6356 213.97 50.0233C214.159 49.4011 214.253 48.7048 214.253 47.9345C214.253 46.868 214.064 45.9298 213.686 45.1199C213.317 44.3101 212.79 43.6336 212.103 43.0905C211.406 42.5473 210.569 42.1375 209.594 41.8609C208.618 41.5745 207.528 41.4313 206.323 41.4313H199.035V63H203.232V54.9414H206.413ZM203.232 51.5639V44.8089H206.323C206.901 44.8089 207.413 44.878 207.861 45.0162C208.309 45.1545 208.688 45.352 208.996 45.6088C209.345 45.8952 209.604 46.2606 209.773 46.705C209.952 47.1395 210.042 47.6432 210.042 48.216C210.042 48.69 209.972 49.1196 209.833 49.5048C209.703 49.8899 209.509 50.2208 209.25 50.4973C208.942 50.8429 208.538 51.1096 208.041 51.2972C207.553 51.475 206.985 51.5639 206.338 51.5639H203.232Z" stroke="black"/>
</svg>
