<svg width="1920" height="348" viewBox="0 0 1920 348" fill="none" xmlns="http://www.w3.org/2000/svg">
<path fill-rule="evenodd" clip-rule="evenodd" d="M0 175.455L80 127.455C160 79.4554 320 -16.5446 480 2.4554C640 22.4554 800 156.455 960 194.455C1120 233.455 1280 175.455 1440 156.455C1600 137.455 1760 156.455 1840 166.455L1920 175.455V348.455H1840C1760 348.455 1600 348.455 1440 348.455C1280 348.455 1120 348.455 960 348.455C800 348.455 640 348.455 480 348.455C320 348.455 160 348.455 80 348.455H0V175.455Z" fill="#40A8C4"/>
</svg>
